name C:/MyDriveSym/Projects/mobilecap/Data\Session20210813_0002\mocap\ForceDataProcessed\walking1_forces.mot
datacolumns 19
datarows 24
range 0.78950000 0.80100000
endheader 
time	R_ground_force_vx	R_ground_force_vy	R_ground_force_vz	R_ground_force_px	R_ground_force_py	R_ground_force_pz	R_ground_torque_x	R_ground_torque_y	R_ground_torque_z	L_ground_force_vx	L_ground_force_vy	L_ground_force_vz	L_ground_force_px	L_ground_force_py	L_ground_force_pz	L_ground_torque_x	L_ground_torque_y	L_ground_torque_z	
          0.78950000	          8.18926900	         43.67031000	          2.65780300	          0.43013000	          0.00600000	         -0.14712800	          0.00000000	          0.07556200	          0.00000000	        -95.70452700	        772.08769500	         16.61549200	          0.89315700	          0.00600000	         -0.24007800	          0.00000000	         -0.82658700	          0.00000000	
          0.79000000	          7.96065100	         42.64580000	          2.61946300	          0.43139100	          0.00600000	         -0.14693400	          0.00000000	          0.07473600	          0.00000000	        -95.50999200	        772.32466900	         16.66227900	          0.89324400	          0.00600000	         -0.24006400	          0.00000000	         -0.83256100	          0.00000000	
          0.79050000	          7.73464300	         41.63249500	          2.58138800	          0.43269200	          0.00600000	         -0.14673400	          0.00000000	          0.07384800	          0.00000000	        -95.31350200	        772.55183800	         16.70764500	          0.89333100	          0.00600000	         -0.24005000	          0.00000000	         -0.83846800	          0.00000000	
          0.79100000	          7.51124000	         40.63035000	          2.54358100	          0.43403500	          0.00600000	         -0.14652600	          0.00000000	          0.07289800	          0.00000000	        -95.11508500	        772.76925500	         16.75160100	          0.89341700	          0.00600000	         -0.24003600	          0.00000000	         -0.84430800	          0.00000000	
          0.79150000	          7.29043200	         39.63931900	          2.50604300	          0.43542200	          0.00600000	         -0.14631100	          0.00000000	          0.07188200	          0.00000000	        -94.91477400	        772.97697300	         16.79415900	          0.89350400	          0.00600000	         -0.24002100	          0.00000000	         -0.85008000	          0.00000000	
          0.79200000	          7.07221300	         38.65935600	          2.46877600	          0.43685600	          0.00600000	         -0.14608700	          0.00000000	          0.07079900	          0.00000000	        -94.71259800	        773.17504700	         16.83533000	          0.89359100	          0.00600000	         -0.24000700	          0.00000000	         -0.85578500	          0.00000000	
          0.79250000	          6.85657400	         37.69041300	          2.43178300	          0.43833800	          0.00600000	         -0.14585500	          0.00000000	          0.06964600	          0.00000000	        -94.50859000	        773.36353100	         16.87512400	          0.89367700	          0.00600000	         -0.23999200	          0.00000000	         -0.86142200	          0.00000000	
          0.79300000	          6.64350700	         36.73244300	          2.39506400	          0.43987300	          0.00600000	         -0.14561400	          0.00000000	          0.06842000	          0.00000000	        -94.30277800	        773.54248000	         16.91355300	          0.89376400	          0.00600000	         -0.23997700	          0.00000000	         -0.86699000	          0.00000000	
          0.79350000	          6.43300300	         35.78539800	          2.35862300	          0.44146200	          0.00600000	         -0.14536400	          0.00000000	          0.06711800	          0.00000000	        -94.09519500	        773.71195000	         16.95062700	          0.89385100	          0.00600000	         -0.23996100	          0.00000000	         -0.87249000	          0.00000000	
          0.79400000	          6.22505200	         34.84922800	          2.32245900	          0.44311000	          0.00600000	         -0.14510300	          0.00000000	          0.06573800	          0.00000000	        -93.88586900	        773.87199700	         16.98636000	          0.89393800	          0.00600000	         -0.23994600	          0.00000000	         -0.87792200	          0.00000000	
          0.79450000	          6.01964500	         33.92388300	          2.28657500	          0.44481900	          0.00600000	         -0.14483200	          0.00000000	          0.06427600	          0.00000000	        -93.67483200	        774.02267800	         17.02076100	          0.89402400	          0.00600000	         -0.23993100	          0.00000000	         -0.88328500	          0.00000000	
          0.79500000	          5.81677300	         33.00931400	          2.25097200	          0.44659400	          0.00600000	         -0.14454900	          0.00000000	          0.06272700	          0.00000000	        -93.46211400	        774.16404900	         17.05384300	          0.89411100	          0.00600000	         -0.23991500	          0.00000000	         -0.88857900	          0.00000000	
          0.79550000	          5.61642600	         32.10547100	          2.21565200	          0.44843800	          0.00600000	         -0.14425400	          0.00000000	          0.06108900	          0.00000000	        -93.24774500	        774.29616800	         17.08561800	          0.89419800	          0.00600000	         -0.23989900	          0.00000000	         -0.89380400	          0.00000000	
          0.79600000	          5.41859200	         31.21230100	          2.18061500	          0.45035600	          0.00600000	         -0.14394700	          0.00000000	          0.05935500	          0.00000000	        -93.03175400	        774.41909200	         17.11609600	          0.89428500	          0.00600000	         -0.23988300	          0.00000000	         -0.89896000	          0.00000000	
          0.79650000	          5.22326100	         30.32975300	          2.14586300	          0.45235200	          0.00600000	         -0.14362600	          0.00000000	          0.05752300	          0.00000000	        -92.81417200	        774.53288100	         17.14529100	          0.89437200	          0.00600000	         -0.23986700	          0.00000000	         -0.90404600	          0.00000000	
          0.79700000	          5.03042200	         29.45777500	          2.11139600	          0.45443200	          0.00600000	         -0.14329000	          0.00000000	          0.05558500	          0.00000000	        -92.59502900	        774.63759100	         17.17321300	          0.89445900	          0.00600000	         -0.23985000	          0.00000000	         -0.90906300	          0.00000000	
          0.79750000	          4.84006300	         28.59631500	          2.07721600	          0.45660200	          0.00600000	         -0.14293800	          0.00000000	          0.05353600	          0.00000000	        -92.37435300	        774.73328400	         17.19987500	          0.89454600	          0.00600000	         -0.23983400	          0.00000000	         -0.91401000	          0.00000000	
          0.79800000	          4.65217300	         27.74531900	          2.04332300	          0.45886700	          0.00600000	         -0.14257000	          0.00000000	          0.05137100	          0.00000000	        -92.15217500	        774.82001700	         17.22528900	          0.89463300	          0.00600000	         -0.23981700	          0.00000000	         -0.91888700	          0.00000000	
          0.79850000	          4.46674000	         26.90473300	          2.00971900	          0.46123500	          0.00600000	         -0.14218400	          0.00000000	          0.04908000	          0.00000000	        -91.92852400	        774.89785100	         17.24946700	          0.89472000	          0.00600000	         -0.23980000	          0.00000000	         -0.92369500	          0.00000000	
          0.79900000	          4.28375100	         26.07450400	          1.97640200	          0.46371300	          0.00600000	         -0.14177900	          0.00000000	          0.04665800	          0.00000000	        -91.70342900	        774.96684700	         17.27242000	          0.89480700	          0.00600000	         -0.23978300	          0.00000000	         -0.92843300	          0.00000000	
          0.79950000	          4.10319300	         25.25457700	          1.94337500	          0.46630900	          0.00600000	         -0.14135400	          0.00000000	          0.04409500	          0.00000000	        -91.47691900	        775.02706300	         17.29416200	          0.89489500	          0.00600000	         -0.23976600	          0.00000000	         -0.93310000	          0.00000000	
          0.80000000	          3.92505400	         24.44489800	          1.91063800	          0.46903100	          0.00600000	         -0.14090600	          0.00000000	          0.04138200	          0.00000000	        -91.24902300	        775.07856200	         17.31470500	          0.89498200	          0.00600000	         -0.23974900	          0.00000000	         -0.93769800	          0.00000000	
          0.80050000	          3.74931900	         23.64541100	          1.87819000	          0.47189100	          0.00600000	         -0.14043400	          0.00000000	          0.03850800	          0.00000000	        -91.01976900	        775.12140500	         17.33406100	          0.89506900	          0.00600000	         -0.23973100	          0.00000000	         -0.94222600	          0.00000000	
          0.80100000	          3.57597600	         22.85606000	          1.84603300	          0.47489800	          0.00600000	         -0.13993700	          0.00000000	          0.03546200	          0.00000000	        -90.78918700	        775.15565200	         17.35224100	          0.89515700	          0.00600000	         -0.23971400	          0.00000000	         -0.94668300	          0.00000000	
